PathFileType	4	(X/Y/Z)	static.trc
DataRate	CameraRate	NumFrames	NumMarkers	Units	OrigDataRate	OrigDataStartFrame	OrigNumFrames
250.000000	250.000000	4	58	mm	250.000000	60	483
Frame#	Time	RASI			LASI			RPSI			LPSI			RAIC			LAIC			RLFC			RMFC			RTH1			RTH2			RTH3			RLMAL			RMMAL			RTB1			RTB2			RTB3			RCAL			RMT1			RMT5			LLFC			LMFC			LTH1			LTH2			LTH3			LLMAL			LMMAL			LTB1			LTB2			LTB3			LCAL			LMT1			LMT5			C7			T10			CLAV			STRN			RACR			LACR			RHJC			LHJC			RKJC			LKJC			RAJC			LAJC			RMT3			LMT3			fRCAL			fLCAL			fRAJC			fLAJC			fRMT1			fLMT1			fRMT5			fLMT5			fRMT3			fLMT3			MTOR			MPEL			
		X1	Y1	Z1	X2	Y2	Z2	X3	Y3	Z3	X4	Y4	Z4	X5	Y5	Z5	X6	Y6	Z6	X7	Y7	Z7	X8	Y8	Z8	X9	Y9	Z9	X10	Y10	Z10	X11	Y11	Z11	X12	Y12	Z12	X13	Y13	Z13	X14	Y14	Z14	X15	Y15	Z15	X16	Y16	Z16	X17	Y17	Z17	X18	Y18	Z18	X19	Y19	Z19	X20	Y20	Z20	X21	Y21	Z21	X22	Y22	Z22	X23	Y23	Z23	X24	Y24	Z24	X25	Y25	Z25	X26	Y26	Z26	X27	Y27	Z27	X28	Y28	Z28	X29	Y29	Z29	X30	Y30	Z30	X31	Y31	Z31	X32	Y32	Z32	X33	Y33	Z33	X34	Y34	Z34	X35	Y35	Z35	X36	Y36	Z36	X37	Y37	Z37	X38	Y38	Z38	X39	Y39	Z39	X40	Y40	Z40	X41	Y41	Z41	X42	Y42	Z42	X43	Y43	Z43	X44	Y44	Z44	X45	Y45	Z45	X46	Y46	Z46	X47	Y47	Z47	X48	Y48	Z48	X49	Y49	Z49	X50	Y50	Z50	X51	Y51	Z51	X52	Y52	Z52	X53	Y53	Z53	X54	Y54	Z54	X55	Y55	Z55	X56	Y56	Z56	X57	Y57	Z57	X58	Y58	Z58	

61	0.24	522.787536621094	1043.415161132813	405.8183288574221	518.2239379882815	1059.36767578125	189.3273620605469	345.5079956054689	1081.688354492188	355.6765136718751	345.9621582031251	1086.62890625	259.9812622070314	449.9530944824221	1115.43359375	456.7178039550784	458.4792480468752	1125.745727539063	160.4388580322266	419.1484375000002	551.6323242187502	490.077331542969	406.202087402344	520.8817138671877	369.3279418945314	441.7858581542971	805.9582519531255	501.0025634765627	487.911071777344	713.4384765625002	490.4456176757815	424.8581848144534	628.9343872070315	491.8269042968752	366.724822998047	96.20049285888678	507.3734130859377	396.2816467285159	105.4997253417969	417.0602111816409	435.3648071289065	397.1249084472659	427.1341247558596	443.3937988281252	331.5665588378907	483.0703735351565	427.564147949219	258.516082763672	441.6544494628909	312.5300598144532	44.58078384399415	454.6242370605471	530.900329589844	47.1188430786133	445.8668212890627	519.7015380859377	43.43948364257814	554.984558105469	419.1351623535159	545.6878662109377	108.8903045654297	410.350524902344	520.0009765625002	231.7642059326173	438.491394042969	832.1469726562505	102.087875366211	477.5620422363284	740.8479614257815	105.9656372070313	412.9898986816409	659.9973754882815	110.6771469116212	372.1123657226564	100.0150375366212	87.98698425292972	400.2227478027346	102.8032302856446	178.8273620605469	439.0882568359377	395.9155578613284	169.9346160888672	450.0449829101565	324.410125732422	121.4186630249024	424.6053771972659	258.0934143066407	166.6259155273438	318.0446777343751	44.43995666503908	134.2227783203126	541.533142089844	42.93522262573244	162.6122436523438	533.0192871093752	41.31529235839845	52.26659774780276	357.6184692382814	1542.822998046876	308.7896118164064	335.7989196777345	1270.454467773438	304.9928588867189	496.9892272949221	1503.256225585938	306.0393676757814	567.8640747070315	1321.528442382813	308.0177612304689	359.538299560547	1538.693237304688	481.0270080566409	354.8935546875001	1539.385742187501	137.440902709961	467.7956098491337	990.2318438383957	366.0463152203008	464.783327885525	1000.761576186938	223.1477198272745	412.6752624511721	536.257019042969	429.7026367187502	414.7428436279299	532.844421386719	170.3272552490235	381.5032348632815	100.8501091003418	462.2168121337893	386.1675567626955	101.4091339111329	133.4071731567383	525.3009338378909	45.27916336059572	500.4256896972659	537.2762145996096	42.12525749206544	107.4394207000733	312.5300598144532	0	454.6242370605471	318.0446777343751	0	134.2227783203126	381.5032348632815	0	462.2168121337893	386.1675567626955	0	133.4071731567383	530.900329589844	0	445.8668212890627	541.533142089844	0	162.6122436523438	519.7015380859377	0	554.984558105469	533.0192871093752	0	52.26659774780276	525.3009338378909	0	500.4256896972659	537.2762145996096	0	107.4394207000733	392.2598876953127	1531.039550781251	308.3242225646974	433.1204071044924	1067.775024414063	302.7008666992189	
62	0.244	522.7790527343752	1043.416625976563	405.8452758789065	518.2873535156252	1059.403198242188	189.3390045166016	345.4116210937501	1081.767578125	355.5906982421876	346.012908935547	1086.67041015625	259.9776916503907	449.9895019531252	1115.465942382813	456.7292480468752	458.5682067871096	1125.765747070313	160.4729156494141	419.1397705078127	551.615905761719	490.0884704589846	406.164978027344	520.8701171875002	369.3207397460939	441.7814636230471	805.9631347656255	500.9833984375002	487.9360656738284	713.4664306640627	490.477478027344	424.8598327636721	628.9331054687502	491.8573303222659	366.6660461425782	96.21291351318365	507.3044433593752	396.2453918457034	105.4696426391602	417.0610961914065	435.3601379394534	397.1165161132815	427.148864746094	443.3529968261721	331.5286560058595	483.0610351562502	427.6024475097659	258.501434326172	441.6635742187502	312.5329895019532	44.58412170410158	454.6340637207034	530.8417968750002	47.11965942382814	445.8386840820315	519.7022094726565	43.47972869873048	555.0079345703127	419.2804260253909	545.7170410156252	108.9352111816407	410.3016052246096	519.9821777343752	231.6941528320314	438.5408935546877	832.1086425781255	102.0944976806641	477.6114501953127	740.8601684570315	105.9469909667969	412.9975891113284	660.0120849609377	110.6589660644532	372.0574645996095	99.98430633544928	87.92774963378909	400.243591308594	102.8020935058594	178.8394165039063	439.0841369628909	395.9003906250002	169.9022064208985	450.0107421875002	324.3638916015626	121.3878250122071	424.6231079101565	258.0941467285157	166.6314239501954	318.0474243164064	44.44863891601564	134.2026367187501	541.5518188476565	42.89750289916994	162.604476928711	533.0706176757815	41.29994201660158	52.34506988525393	357.4987182617189	1542.806396484376	308.7014160156251	335.8455505371095	1270.428344726563	304.9910888671876	497.0678405761721	1503.452270507813	306.0333862304689	567.9009399414065	1321.710083007813	308.0521850585939	359.5421142578126	1538.687011718751	480.9283752441409	354.8632202148439	1539.387573242188	137.3868713378907	467.7764770712182	990.2471626227632	366.0451435909498	464.8116535781824	1000.799375208233	223.1364472461441	412.6523742675784	536.2430114746096	429.7046051025393	414.7910156250002	532.8496093750002	170.3146820068361	381.4557189941408	100.8412780761719	462.1827697753909	386.1505279541017	101.3931999206543	133.3835830688477	525.2720031738284	45.29969406127931	500.4233093261721	537.311218261719	42.09872245788576	107.4747734069825	312.5329895019532	0	454.6340637207034	318.0474243164064	0	134.2026367187501	381.4557189941408	0	462.1827697753909	386.1505279541017	0	133.3835830688477	530.8417968750002	0	445.8386840820315	541.5518188476565	0	162.604476928711	519.7022094726565	0	555.0079345703127	533.0706176757815	0	52.34506988525393	525.2720031738284	0	500.4233093261721	537.311218261719	0	107.4747734069825	392.2429733276369	1531.083312988282	308.2625122070314	433.1227340698244	1067.814453125	302.6881675720216	
63	0.248	522.752136230469	1043.428466796875	405.8197937011721	518.3331298828127	1059.413818359375	189.3608398437501	345.2852783203126	1081.475952148438	355.6663818359376	346.0275878906251	1086.691162109375	259.9668273925782	450.0222167968752	1115.531982421875	456.7210998535159	458.6364440917971	1125.80126953125	160.4613494873047	419.1247253417971	551.6346435546877	490.0857238769534	406.149841308594	520.8885498046877	369.3304443359376	441.7787170410159	805.957397460938	500.9812316894534	487.9006652832034	713.4619140625002	490.4610290527346	424.8259582519534	628.9340820312502	491.8351745605471	366.6873474121095	96.23312377929693	507.3409118652346	396.2979736328127	105.478988647461	417.0920104980471	435.3695983886721	397.1363525390627	427.1683349609377	443.3515930175784	331.5686950683595	483.0607910156252	427.5486145019534	258.5211181640626	441.6174011230471	312.5704040527345	44.54479217529298	454.4504394531252	530.8779907226565	47.11297988891603	445.8791503906252	519.7000732421877	43.47120666503908	555.0137939453127	419.267028808594	545.7309570312502	108.9763793945313	410.315124511719	520.005798339844	231.7545623779298	438.5690917968752	832.1008300781255	102.0754623413087	477.6581726074221	740.8621215820315	105.922950744629	413.0630798339846	660.008239746094	110.6771850585938	372.0418701171876	99.97412109375006	87.9421310424805	400.2487792968752	102.8146667480469	178.8358459472657	439.1006774902346	395.9197387695315	169.909896850586	450.0244445800784	324.3912048339845	121.4181289672852	424.6125793457034	258.0819396972657	166.6067962646485	318.029998779297	44.45397186279298	134.1899566650391	541.7667236328127	43.19300842285158	162.5745544433594	533.0882568359377	41.29066848754884	52.34499740600589	357.414031982422	1542.781494140626	308.6836853027345	335.7978515625001	1270.431518554688	304.9349670410157	496.910583496094	1503.476318359375	306.0055236816407	567.9016113281252	1321.778930664063	308.0762329101564	359.4121093750001	1538.784545898438	480.9878845214846	354.8111877441407	1539.404785156251	137.3215484619141	467.8032315810371	990.2297594810826	366.0061617440441	464.8863902038429	1000.781166561823	223.1286948650093	412.6372833251955	536.2615966796877	429.7080841064455	414.7910766601565	532.8683776855471	170.3654708862306	381.4926605224611	100.856056213379	462.2164611816409	386.1453247070314	101.3943939208985	133.3889884948731	525.2890319824221	45.29209327697755	500.446472167969	537.4274902343752	42.24183845520021	107.4597759246826	312.5704040527345	0	454.4504394531252	318.029998779297	0	134.1899566650391	381.4926605224611	0	462.2164611816409	386.1453247070314	0	133.3889884948731	530.8779907226565	0	445.8791503906252	541.7667236328127	0	162.5745544433594	519.7000732421877	0	555.0137939453127	533.0882568359377	0	52.34499740600589	525.2890319824221	0	500.446472167969	537.4274902343752	0	107.4597759246826	392.1369781494142	1531.111785888672	308.2496604919435	433.0995330810549	1067.752349853516	302.7034606933595	
64	0.252	522.7647094726565	1043.442016601563	405.911804199219	518.3855590820315	1059.427734375	189.3934936523438	345.5331420898439	1081.769897460938	355.6435546875001	346.0673828125001	1086.707397460938	259.951629638672	450.0153808593752	1115.594482421875	456.6930236816409	458.7093200683596	1125.871704101563	160.4193878173829	419.1111450195315	551.6392822265627	490.099060058594	406.1546325683596	520.8929443359377	369.3335266113282	441.7580871582034	805.982055664063	500.9790344238284	487.8925781250002	713.476501464844	490.4618225097659	424.8140869140627	628.9500122070315	491.8477478027346	366.6932373046876	96.23863983154303	507.325134277344	396.2626647949221	105.4900436401368	417.0795593261721	435.325866699219	397.1247863769534	427.1260375976565	443.3576354980471	331.5617675781251	483.096130371094	427.5168762207034	258.5171508789064	441.604187011719	312.5351562500001	44.51118469238283	454.7090454101565	530.8657226562502	47.09879684448244	445.8640747070315	519.6970214843752	43.47219467163087	554.982604980469	419.2644348144534	545.713562011719	108.9525451660157	410.267272949219	519.9671630859377	231.7250823974611	438.609558105469	832.191040039063	102.0735473632813	477.707214355469	740.876892089844	105.9207305908204	413.0726623535159	660.0325927734377	110.6486511230469	372.0489196777345	100.0273590087891	87.97058868408206	400.2417297363284	102.8249588012696	178.8452453613282	439.1191101074221	395.904479980469	169.9119262695313	450.0165710449221	324.3614807128907	121.4248580932618	424.6231689453127	258.1004638671876	166.6233215332032	318.0724182128907	44.43569183349611	134.2332153320313	540.9529418945315	42.90448379516603	162.2665405273438	533.113952636719	41.29379272460939	52.37885284423831	357.3183898925782	1542.744018554688	308.6267089843751	335.8125915527345	1270.37646484375	304.9399719238282	496.8945007324221	1503.578491210938	306.0339965820314	567.9730224609377	1321.990234375	308.1881103515626	359.2649841308595	1538.929199218751	480.9601745605471	354.7913818359376	1539.420532226563	137.2926635742188	467.7914830652276	990.2696153430201	366.0814057320995	464.900949379281	1000.821263858467	223.1647633624184	412.6328887939455	536.2661132812502	429.7162933349611	414.7658538818362	532.8403625488284	170.3388137817384	381.4779510498049	100.8643417358399	462.202346801758	386.1453247070315	101.4261589050294	133.4079170227051	525.2813720703127	45.28549575805665	500.4233398437502	537.0334472656252	42.09913825988771	107.3226966857911	312.5351562500001	0	454.7090454101565	318.0724182128907	0	134.2332153320313	381.4779510498049	0	462.202346801758	386.1453247070315	0	133.4079170227051	530.8657226562502	0	445.8640747070315	540.9529418945315	0	162.2665405273438	519.6970214843752	0	554.982604980469	533.113952636719	0	52.37885284423831	525.2813720703127	0	500.4233398437502	537.0334472656252	0	107.3226966857911	392.0673141479493	1531.168060302735	308.2283859252931	433.187698364258	1067.83676147461	302.7251205444337	
